<mxfile host="drawio.yandex-team.ru" modified="2023-08-06T12:20:12.766Z" agent="Mozilla/5.0 (Macintosh; Intel Mac OS X 10_15_7) AppleWebKit/537.36 (KHTML, like Gecko) Chrome/114.0.0.0 YaBrowser/23.7.0.2562 Yowser/2.5 Safari/537.36" etag="6b3fV5Iaa31eNxRih1Sa" version="21.6.2" type="device">
  <diagram name="Page-1" id="a7904f86-f2b4-8e86-fa97-74104820619b">
    <mxGraphModel dx="931" dy="558" grid="1" gridSize="10" guides="1" tooltips="1" connect="1" arrows="1" fold="1" page="1" pageScale="1" pageWidth="1100" pageHeight="850" background="none" math="0" shadow="0">
      <root>
        <mxCell id="0" />
        <mxCell id="1" parent="0" />
        <mxCell id="bJCHf3nAYLQJCrVV6IQW-19" value="Task tracker domain" style="rounded=0;whiteSpace=wrap;html=1;labelPosition=center;verticalLabelPosition=top;align=center;verticalAlign=bottom;" vertex="1" parent="1">
          <mxGeometry x="390" y="300" width="350" height="270" as="geometry" />
        </mxCell>
        <mxCell id="bJCHf3nAYLQJCrVV6IQW-14" value="Auth Domain" style="rounded=0;whiteSpace=wrap;html=1;labelPosition=center;verticalLabelPosition=top;align=center;verticalAlign=bottom;" vertex="1" parent="1">
          <mxGeometry x="260" y="150" width="460" height="110" as="geometry" />
        </mxCell>
        <mxCell id="bJCHf3nAYLQJCrVV6IQW-10" value="" style="edgeStyle=orthogonalEdgeStyle;rounded=0;orthogonalLoop=1;jettySize=auto;html=1;" edge="1" parent="1" source="bJCHf3nAYLQJCrVV6IQW-4" target="bJCHf3nAYLQJCrVV6IQW-5">
          <mxGeometry relative="1" as="geometry" />
        </mxCell>
        <mxCell id="bJCHf3nAYLQJCrVV6IQW-20" value="" style="edgeStyle=orthogonalEdgeStyle;rounded=0;orthogonalLoop=1;jettySize=auto;html=1;" edge="1" parent="1" source="bJCHf3nAYLQJCrVV6IQW-4" target="bJCHf3nAYLQJCrVV6IQW-13">
          <mxGeometry relative="1" as="geometry" />
        </mxCell>
        <mxCell id="bJCHf3nAYLQJCrVV6IQW-4" value="Account" style="rounded=0;whiteSpace=wrap;html=1;" vertex="1" parent="1">
          <mxGeometry x="440" y="180" width="120" height="60" as="geometry" />
        </mxCell>
        <mxCell id="bJCHf3nAYLQJCrVV6IQW-5" value="Role" style="rounded=0;whiteSpace=wrap;html=1;" vertex="1" parent="1">
          <mxGeometry x="580" y="180" width="120" height="60" as="geometry" />
        </mxCell>
        <mxCell id="bJCHf3nAYLQJCrVV6IQW-11" value="" style="edgeStyle=orthogonalEdgeStyle;rounded=0;orthogonalLoop=1;jettySize=auto;html=1;" edge="1" parent="1" source="bJCHf3nAYLQJCrVV6IQW-6" target="bJCHf3nAYLQJCrVV6IQW-7">
          <mxGeometry relative="1" as="geometry" />
        </mxCell>
        <mxCell id="bJCHf3nAYLQJCrVV6IQW-6" value="Task" style="rounded=0;whiteSpace=wrap;html=1;" vertex="1" parent="1">
          <mxGeometry x="440" y="415" width="120" height="60" as="geometry" />
        </mxCell>
        <mxCell id="bJCHf3nAYLQJCrVV6IQW-12" value="" style="edgeStyle=orthogonalEdgeStyle;rounded=0;orthogonalLoop=1;jettySize=auto;html=1;" edge="1" parent="1" source="bJCHf3nAYLQJCrVV6IQW-7" target="bJCHf3nAYLQJCrVV6IQW-8">
          <mxGeometry relative="1" as="geometry" />
        </mxCell>
        <mxCell id="bJCHf3nAYLQJCrVV6IQW-7" value="Status" style="rounded=0;whiteSpace=wrap;html=1;" vertex="1" parent="1">
          <mxGeometry x="440" y="490" width="120" height="60" as="geometry" />
        </mxCell>
        <mxCell id="bJCHf3nAYLQJCrVV6IQW-8" value="Audit" style="rounded=0;whiteSpace=wrap;html=1;" vertex="1" parent="1">
          <mxGeometry x="590" y="490" width="120" height="60" as="geometry" />
        </mxCell>
        <mxCell id="bJCHf3nAYLQJCrVV6IQW-13" value="Auth" style="rounded=0;whiteSpace=wrap;html=1;" vertex="1" parent="1">
          <mxGeometry x="300" y="180" width="120" height="60" as="geometry" />
        </mxCell>
        <mxCell id="bJCHf3nAYLQJCrVV6IQW-16" value="" style="edgeStyle=orthogonalEdgeStyle;rounded=0;orthogonalLoop=1;jettySize=auto;html=1;" edge="1" parent="1" source="bJCHf3nAYLQJCrVV6IQW-15" target="bJCHf3nAYLQJCrVV6IQW-6">
          <mxGeometry relative="1" as="geometry" />
        </mxCell>
        <mxCell id="bJCHf3nAYLQJCrVV6IQW-15" value="Account" style="rounded=0;whiteSpace=wrap;html=1;" vertex="1" parent="1">
          <mxGeometry x="440" y="330" width="120" height="60" as="geometry" />
        </mxCell>
        <mxCell id="bJCHf3nAYLQJCrVV6IQW-18" value="" style="endArrow=block;startArrow=block;html=1;rounded=0;exitX=0.5;exitY=0;exitDx=0;exitDy=0;dashed=1;dashPattern=1 1;startFill=0;endFill=0;" edge="1" parent="1" source="bJCHf3nAYLQJCrVV6IQW-15" target="bJCHf3nAYLQJCrVV6IQW-4">
          <mxGeometry width="50" height="50" relative="1" as="geometry">
            <mxPoint x="510" y="370" as="sourcePoint" />
            <mxPoint x="560" y="320" as="targetPoint" />
          </mxGeometry>
        </mxCell>
      </root>
    </mxGraphModel>
  </diagram>
</mxfile>
